<?xml version="1.0" encoding="UTF-8" standalone="no"?>
<!-- Created with Inkscape (http://www.inkscape.org/) -->

<svg
   xmlns:dc="http://purl.org/dc/elements/1.1/"
   xmlns:cc="http://creativecommons.org/ns#"
   xmlns:rdf="http://www.w3.org/1999/02/22-rdf-syntax-ns#"
   xmlns:svg="http://www.w3.org/2000/svg"
   xmlns="http://www.w3.org/2000/svg"
   xmlns:sodipodi="http://sodipodi.sourceforge.net/DTD/sodipodi-0.dtd"
   xmlns:inkscape="http://www.inkscape.org/namespaces/inkscape"
   id="svg3612"
   version="1.1"
   inkscape:version="0.48.3.1 r9886"
   width="1530"
   height="990"
   xml:space="preserve"
   sodipodi:docname="Canube2InkScape.svg"><metadata
     id="metadata3618"><rdf:RDF><cc:Work
         rdf:about=""><dc:format>image/svg+xml</dc:format><dc:type
           rdf:resource="http://purl.org/dc/dcmitype/StillImage" /><dc:title></dc:title></cc:Work></rdf:RDF></metadata><defs
     id="defs3616"><clipPath
       clipPathUnits="userSpaceOnUse"
       id="clipPath3628"><path
         d="m 10337.4,6502.91 -8434.82,0 0,-3675.03 8434.82,0 0,3675.03 z"
         id="path3630" /></clipPath><clipPath
       clipPathUnits="userSpaceOnUse"
       id="clipPath3634"><path
         d="m 1766.8,2692.96 9015.2,0 0,4817.57 -9015.2,0 0,-4817.57 z"
         id="path3636" /></clipPath><clipPath
       clipPathUnits="userSpaceOnUse"
       id="clipPath3638"><path
         d="m 10782,7510.53 -9015.2,0 0,-4817.57 9015.2,0 0,4817.57 z"
         id="path3640" /></clipPath><clipPath
       clipPathUnits="userSpaceOnUse"
       id="clipPath3642"><path
         d="m 1766.8,2692.96 9015.2,0 0,4817.57 -9015.2,0 0,-4817.57 z"
         id="path3644" /></clipPath><clipPath
       clipPathUnits="userSpaceOnUse"
       id="clipPath3646"><path
         d="m 1766,2692 0,4819 9016,0 0,-4819 -9016,0 z"
         id="path3648" /></clipPath><linearGradient
       x1="0"
       y1="0"
       x2="1"
       y2="0"
       gradientUnits="userSpaceOnUse"
       gradientTransform="matrix(-2.11e-4,-4817.58,-4817.58,2.11e-4,6274.39,7510.53)"
       spreadMethod="pad"
       id="linearGradient3650"><stop
         style="stop-opacity:1;stop-color:#ffffff"
         offset="0"
         id="stop3652" /><stop
         style="stop-opacity:1;stop-color:#231f20"
         offset="1"
         id="stop3654" /></linearGradient><mask
       maskUnits="userSpaceOnUse"
       x="0"
       y="0"
       width="1"
       height="1"
       id="mask3656"><g
         id="g3658"><g
           clip-path="url(#clipPath3634)"
           id="g3660"><g
             id="g3662"><g
               clip-path="url(#clipPath3638)"
               id="g3664"><g
                 id="g3666" /><g
                 id="g3668"><g
                   clip-path="url(#clipPath3642)"
                   id="g3670"><g
                     id="g3672"><g
                       clip-path="url(#clipPath3646)"
                       id="g3674"><path
                         d="m 1766,2692 9016,0 0,4819 -9016,0 0,-4819 z"
                         style="fill:url(#linearGradient3650);fill-opacity:1;fill-rule:nonzero;stroke:none"
                         id="path3676" /></g></g></g></g></g></g></g></g></mask><clipPath
       clipPathUnits="userSpaceOnUse"
       id="clipPath3682"><path
         d="m 1902.58,2827.88 8434.82,0 0,3675.03 -8434.82,0 0,-3675.03 z"
         id="path3684" /></clipPath><clipPath
       clipPathUnits="userSpaceOnUse"
       id="clipPath3686"><path
         d="m 10337.4,6502.91 -8434.82,0 0,-3675.03 8434.82,0 0,3675.03 z"
         id="path3688" /></clipPath></defs><sodipodi:namedview
     pagecolor="#ffffff"
     bordercolor="#666666"
     borderopacity="1"
     objecttolerance="10"
     gridtolerance="10"
     guidetolerance="10"
     inkscape:pageopacity="0"
     inkscape:pageshadow="2"
     inkscape:window-width="1366"
     inkscape:window-height="712"
     id="namedview3614"
     showgrid="false"
     inkscape:zoom="0.57979798"
     inkscape:cx="765"
     inkscape:cy="635.20079"
     inkscape:window-x="0"
     inkscape:window-y="27"
     inkscape:window-maximized="1"
     inkscape:current-layer="g3620" /><g
     id="g3620"
     inkscape:groupmode="layer"
     inkscape:label="ink_ext_XXXXXX"
     transform="matrix(1.25,0,0,-1.25,0,990)"><g
       id="g3624"
       transform="matrix(0.061152,0,0,0.1,418.85917,0)"><g
         clip-path="url(#clipPath3628)"
         id="g3626"><g
           id="g3632" /><g
           mask="url(#mask3656)"
           id="g3678"><g
             id="g3680" /><g
             id="g3690"><g
               id="g3692"
               clip-path="url(#clipPath3682)"><g
                 id="g3694"><g
                   id="g3696"
                   clip-path="url(#clipPath3686)"><path
                     inkscape:connector-curvature="0"
                     id="path3698"
                     style="fill:#27d6f2;fill-opacity:1;fill-rule:nonzero;stroke:none"
                     d="m 9270.75,4971.21 c -185.2,0 -359.34,-47.25 -511.15,-130.27 1.56,23.48 2.42,47.17 2.42,71.05 0,589.11 -477.56,1066.67 -1066.65,1066.67 -212.2,0 -409.9,-61.99 -576.04,-168.8 -151.43,404.82 -541.7,693.05 -999.34,693.05 -457.66,0 -847.89,-288.23 -999.33,-693.04 -166.15,106.81 -363.86,168.79 -576.05,168.79 -589.09,0 -1066.65,-477.56 -1066.65,-1066.67 0,-20.03 0.62,-39.93 1.67,-59.72 -151.6,82.8 -325.48,129.87 -510.38,129.87 -589.12,0 -1066.67,-477.56 -1066.67,-1066.67 0,-241.87 83.42,-479.58 235.06,-668.08 149.49,-185.8 360.4,-318.65 592.97,-371.8 140.84,-32.18 291.31,-47.91 435.8,-47.71 81.62,0.14 163.24,0 244.84,0 l 5785.96,0 c 78.33,0 162.92,10.8 240.3,22.93 60.11,9.47 119.38,24.06 176.98,43.61 112.55,38.32 218.44,95.69 312.17,168.87 187.74,146.6 323.54,355.33 380.24,586.84 20.4,83.2 30.5,168.75 30.5,254.42 0,589.08 -477.54,1066.66 -1066.65,1066.66" /></g></g></g></g></g></g></g><path
       inkscape:connector-curvature="0"
       id="path3712"
       style="fill:#231f20;fill-opacity:1;fill-rule:nonzero;stroke:none"
       d="m 589.49317,478.45194 c 0,-12.358 -10.018,-22.377 -22.38,-22.377 -12.357,0 -22.377,10.019 -22.377,22.377 0,12.36 10.02,22.379 22.377,22.379 12.362,0 22.38,-10.019 22.38,-22.379" /><path
       inkscape:connector-curvature="0"
       id="path3714"
       style="fill:#231f20;fill-opacity:1;fill-rule:nonzero;stroke:none"
       d="m 721.46117,318.45594 c 0,-12.362 -10.019,-22.378 -22.379,-22.378 -12.358,0 -22.377,10.016 -22.377,22.378 0,12.358 10.019,22.376 22.377,22.376 12.36,0 22.379,-10.018 22.379,-22.376" /><path
       inkscape:connector-curvature="0"
       id="path3716"
       style="fill:#231f20;fill-opacity:1;fill-rule:nonzero;stroke:none"
       d="m 890.30317,379.33594 c 0,-20.01 -16.222,-36.231 -36.234,-36.231 -20.01,0 -36.233,16.221 -36.233,36.231 0,20.012 16.223,36.234 36.233,36.234 20.012,0 36.234,-16.222 36.234,-36.234" /><path
       inkscape:connector-curvature="0"
       id="path3718"
       style="fill:#231f20;fill-opacity:1;fill-rule:nonzero;stroke:none"
       d="m 1056.1142,603.65194 c 0,-12.359 -10.02,-22.377 -22.38,-22.377 -12.358,0 -22.377,10.018 -22.377,22.377 0,12.359 10.019,22.378 22.377,22.378 12.36,0 22.38,-10.019 22.38,-22.378" /><path
       inkscape:connector-curvature="0"
       id="path3720"
       style="fill:none;stroke:#231f20;stroke-width:4.26300001;stroke-linecap:butt;stroke-linejoin:miter;stroke-miterlimit:10;stroke-opacity:1;stroke-dasharray:none"
       d="m 567.11417,478.45194 131.968,-159.997 154.986,60.88 179.66703,224.316" /><path
       inkscape:connector-curvature="0"
       id="path3722"
       style="fill:#231f20;fill-opacity:1;fill-rule:nonzero;stroke:none"
       d="m 840.21517,461.05194 c 0,-12.359 -10.018,-22.378 -22.379,-22.378 -12.357,0 -22.377,10.019 -22.377,22.378 0,12.359 10.02,22.378 22.377,22.378 12.361,0 22.379,-10.019 22.379,-22.378" /><path
       inkscape:connector-curvature="0"
       id="path3724"
       style="fill:#231f20;fill-opacity:1;fill-rule:nonzero;stroke:none"
       d="m 999.98517,306.86494 c 0,-12.361 -10.018,-22.377 -22.378,-22.377 -12.358,0 -22.377,10.016 -22.377,22.377 0,12.36 10.019,22.377 22.377,22.377 12.36,0 22.378,-10.017 22.378,-22.377" /><path
       inkscape:connector-curvature="0"
       id="path3726"
       style="fill:none;stroke:#231f20;stroke-width:4.26300001;stroke-linecap:butt;stroke-linejoin:miter;stroke-miterlimit:10;stroke-opacity:1;stroke-dasharray:none"
       d="m 817.83617,461.05194 36.232,-81.716 123.539,-72.471" /></g></svg>